<?xml version="1.0" encoding="UTF-8" standalone="no"?>
<svg width="162px" height="162px" viewBox="0 0 162 162" version="1.1" xmlns="http://www.w3.org/2000/svg" xmlns:xlink="http://www.w3.org/1999/xlink" xmlns:sketch="http://www.bohemiancoding.com/sketch/ns">
    <title>icon-pillar-academic_execellence</title>
    <description>Created with Sketch (http://www.bohemiancoding.com/sketch)</description>
    <defs></defs>
    <g id="Page-1" stroke="none" stroke-width="1" fill="none" fill-rule="evenodd" sketch:type="MSPage">
        <g id="Imported-Layers" sketch:type="MSLayerGroup">
            <path d="M162,81.01 C162,125.749 125.737,162.003 81.007,162.003 C36.268,162.003 0,125.749 0,81.01 C0,36.259 36.268,0 81.007,0 C125.737,0 162,36.259 162,81.01" id="Fill-1" fill="#2372AC" sketch:type="MSShapeGroup"></path>
            <path d="M122.417,134.165 L40.308,134.165 C38.099,134.165 36.308,132.374 36.308,130.165 L36.308,65.255 C36.308,58.055 44.616,54.404 61.002,54.404 C69.288,54.404 76.924,57.185 81.362,61.217 C85.8,57.185 93.437,54.404 101.722,54.404 C118.108,54.404 126.417,58.055 126.417,65.255 L126.417,130.165 C126.417,132.374 124.626,134.165 122.417,134.165 L122.417,134.165 Z M44.308,126.165 L118.417,126.165 L118.417,65.329 C117.82,64.514 113.692,62.404 101.722,62.404 C91.789,62.404 85.362,67.301 85.362,68.995 C85.362,71.204 83.571,72.995 81.362,72.995 C79.153,72.995 77.362,71.204 77.362,68.995 C77.362,67.301 70.936,62.404 61.002,62.404 C49.032,62.404 44.904,64.514 44.308,65.329 L44.308,126.165 L44.308,126.165 Z" id="Fill-3" fill="#FFFFFF" sketch:type="MSShapeGroup"></path>
            <path d="M77.362,115.553169 C73.1750802,113.477171 67.5065986,112.262 61.002,112.262 C47.127,112.262 37.056,117.792 37.056,125.412 C37.056,127.621 38.847,129.412 41.056,129.412 C43.265,129.412 45.056,127.621 45.056,125.412 C45.056,124.089 50.539,120.262 61.002,120.262 C71.466,120.262 76.949,124.089 76.949,125.412 C76.949,127.621 78.74,129.412 80.949,129.412 C81.0886187,129.412 81.2265676,129.404845 81.3625,129.390883 C81.4984324,129.404845 81.6363813,129.412 81.776,129.412 C83.985,129.412 85.776,127.621 85.776,125.412 C85.776,124.089 91.259,120.262 101.722,120.262 C112.186,120.262 117.669,124.089 117.669,125.412 C117.669,127.621 119.46,129.412 121.669,129.412 C123.877,129.412 125.669,127.621 125.669,125.412 C125.669,117.792 115.598,112.262 101.722,112.262 C95.2174299,112.262 89.5488704,113.477336 85.362,115.55359 L85.362,65.676 C85.362,63.467 83.571,61.676 81.362,61.676 C79.153,61.676 77.362,63.467 77.362,65.676 L77.362,115.553169 Z" id="Fill-4" fill="#FFFFFF" sketch:type="MSShapeGroup"></path>
            <path d="M82.46,19.008 L85.763,27.585 L93.729,27.875 L87.627,32.421 L89.536,41.287 L82.46,36.386 L75.384,41.287 L77.293,32.421 L71.191,27.875 L79.157,27.585 L82.46,19.008" id="Fill-7" fill="#FFFFFF" sketch:type="MSShapeGroup"></path>
            <path d="M89.536,42.787 C89.237,42.787 88.939,42.698 88.682,42.52 L82.46,38.211 L76.238,42.52 C75.733,42.871 75.064,42.876 74.552,42.535 C74.04,42.193 73.789,41.573 73.918,40.972 L75.623,33.048 L70.295,29.078 C69.785,28.697 69.57,28.036 69.759,27.429 C69.949,26.821 70.501,26.399 71.137,26.376 L78.113,26.122 L81.06,18.469 C81.283,17.89 81.839,17.508 82.46,17.508 C83.081,17.508 83.637,17.89 83.86,18.469 L86.807,26.122 L93.783,26.376 C94.419,26.399 94.971,26.821 95.161,27.429 C95.35,28.036 95.135,28.697 94.625,29.078 L89.296,33.048 L91.002,40.972 C91.131,41.573 90.88,42.193 90.368,42.535 C90.116,42.703 89.826,42.787 89.536,42.787 L89.536,42.787 Z M82.46,34.886 C82.759,34.886 83.057,34.975 83.314,35.152 L87.271,37.894 L86.161,32.736 C86.037,32.162 86.26,31.569 86.731,31.218 L89.414,29.219 L85.708,29.084 C85.108,29.062 84.579,28.685 84.363,28.124 L82.46,23.182 L80.557,28.124 C80.341,28.685 79.812,29.062 79.211,29.084 L75.506,29.219 L78.189,31.218 C78.66,31.569 78.883,32.162 78.759,32.736 L77.649,37.894 L81.606,35.152 C81.863,34.975 82.161,34.886 82.46,34.886 L82.46,34.886 Z" id="Fill-8" fill="#FFFFFF" sketch:type="MSShapeGroup"></path>
            <path d="M53.401,31.262 L55.756,37.376 L61.434,37.582 L57.085,40.822 L58.445,47.143 L53.401,43.648 L48.358,47.143 L49.718,40.822 L45.369,37.582 L51.047,37.376 L53.401,31.262" id="Fill-9" fill="#FFFFFF" sketch:type="MSShapeGroup"></path>
            <path d="M58.445,48.643 C58.146,48.643 57.847,48.554 57.591,48.376 L53.401,45.474 L49.212,48.376 C48.707,48.727 48.037,48.731 47.525,48.391 C47.013,48.049 46.762,47.429 46.892,46.827 L48.049,41.449 L44.473,38.785 C43.962,38.404 43.748,37.743 43.937,37.136 C44.127,36.528 44.679,36.106 45.315,36.083 L50.003,35.913 L52.002,30.723 C52.225,30.144 52.781,29.762 53.401,29.762 C54.022,29.762 54.578,30.144 54.801,30.723 L56.8,35.913 L61.488,36.083 C62.124,36.106 62.676,36.528 62.866,37.136 C63.055,37.743 62.84,38.404 62.33,38.785 L58.754,41.449 L59.911,46.827 C60.04,47.429 59.79,48.049 59.277,48.391 C59.025,48.559 58.735,48.643 58.445,48.643 L58.445,48.643 Z M53.401,42.148 C53.7,42.148 53.999,42.237 54.255,42.415 L56.18,43.749 L55.618,41.138 C55.495,40.563 55.717,39.971 56.188,39.619 L57.119,38.927 L55.702,38.875 C55.101,38.853 54.572,38.476 54.356,37.915 L53.401,35.435 L52.447,37.915 C52.231,38.476 51.702,38.853 51.101,38.875 L49.684,38.927 L50.614,39.619 C51.085,39.971 51.308,40.563 51.185,41.138 L50.623,43.749 L52.547,42.415 C52.804,42.237 53.103,42.148 53.401,42.148 L53.401,42.148 Z" id="Fill-10" fill="#FFFFFF" sketch:type="MSShapeGroup"></path>
            <path d="M111.519,30.52 L113.873,36.634 L119.551,36.841 L115.202,40.08 L116.562,46.4 L111.519,42.906 L106.475,46.4 L107.835,40.08 L103.486,36.841 L109.164,36.634 L111.519,30.52" id="Fill-11" fill="#FFFFFF" sketch:type="MSShapeGroup"></path>
            <path d="M116.562,47.9 C116.263,47.9 115.964,47.811 115.708,47.634 L111.519,44.731 L107.329,47.634 C106.824,47.984 106.154,47.989 105.643,47.648 C105.13,47.307 104.879,46.686 105.009,46.085 L106.166,40.707 L102.59,38.044 C102.08,37.664 101.865,37.003 102.054,36.394 C102.243,35.787 102.795,35.365 103.432,35.342 L108.12,35.171 L110.119,29.98 C110.342,29.401 110.898,29.02 111.519,29.02 C112.139,29.02 112.695,29.401 112.919,29.98 L114.917,35.171 L119.606,35.342 C120.242,35.365 120.794,35.787 120.983,36.394 C121.172,37.003 120.957,37.664 120.447,38.044 L116.871,40.707 L118.028,46.085 C118.158,46.686 117.907,47.307 117.395,47.648 C117.143,47.816 116.852,47.9 116.562,47.9 L116.562,47.9 Z M111.519,41.406 C111.817,41.406 112.116,41.495 112.373,41.673 L114.297,43.007 L113.735,40.396 C113.612,39.821 113.835,39.227 114.306,38.877 L115.236,38.185 L113.818,38.133 C113.218,38.111 112.689,37.733 112.473,37.173 L111.519,34.693 L110.564,37.173 C110.348,37.733 109.819,38.111 109.219,38.133 L107.801,38.185 L108.731,38.877 C109.203,39.227 109.425,39.821 109.302,40.396 L108.74,43.007 L110.665,41.673 C110.921,41.495 111.22,41.406 111.519,41.406 L111.519,41.406 Z" id="Fill-12" fill="#FFFFFF" sketch:type="MSShapeGroup"></path>
        </g>
    </g>
</svg>